# xmcd
#
# Track frame offsets: 
#        150
#        12658
#        25586
#        36451
#        48434
#        60792
#        74390
#        95720
#        106418
#        118340
#        130744
#        143223
#        156036
#        173239
#        183336
#        195701
#
# Disc length: 2735 seconds
#
# Revision: 0
# Processed by: cddbd v1.5.2PL0 Copyright (c) Steve Scherf et al.
# Submitted via: ExactAudioCopy v1.1
#
DISCID=e10aad10
DTITLE=Various Artist - Le meilleur du Country
DYEAR=1900
DGENRE=Country
TTITLE0=Freddy Fender - Wasted day Wasted night
TTITLE1=Lynn Anderson - Rose Garden
TTITLE2=Leroy Van Dyke - Walk on By
TTITLE3=Johnny Cash - Ring of Fire
TTITLE4=Buck Owen - Under your Spell Again
TTITLE5=Ray Price - Heartache by the number
TTITLE6=Marty Robbins - El Paso
TTITLE7=Connie Francis - Once a day
TTITLE8=Jim Reeves - Welcome to my World
TTITLE9=Johnny Cash - I Walk the Line
TTITLE10=Patsy Cline - Crazy
TTITLE11=Hank Snow - I'm moving on
TTITLE12=Kenny Rogers - Island in the Stream
TTITLE13=Hank Lockling - Please Help me i'm Falling
TTITLE14=Hank Williams - Your Cheating Heart
TTITLE15=George Jones - The race is on
EXTD=
EXTT0=
EXTT1=
EXTT2=
EXTT3=
EXTT4=
EXTT5=
EXTT6=
EXTT7=
EXTT8=
EXTT9=
EXTT10=
EXTT11=
EXTT12=
EXTT13=
EXTT14=
EXTT15=
PLAYORDER=
